<?xml version="1.0" encoding="utf-8"?>
<!-- Generator: Adobe Illustrator 24.1.1, SVG Export Plug-In . SVG Version: 6.00 Build 0)  -->
<svg version="1.1" id="Layer_1" xmlns="http://www.w3.org/2000/svg" xmlns:xlink="http://www.w3.org/1999/xlink" x="0px" y="0px"
	 viewBox="0 0 200 200" style="enable-background:new 0 0 200 200;" xml:space="preserve">
<style type="text/css">
	.st0{fill:url(#SVGID_1_);}
	.st1{fill:url(#SVGID_2_);}
	.st2{fill:url(#SVGID_3_);}
	.st3{fill:url(#SVGID_4_);}
	.st4{fill:url(#SVGID_5_);}
	.st5{fill:url(#SVGID_6_);}
	.st6{fill:url(#SVGID_7_);}
	.st7{fill:#61C0E2;}
	.st8{fill:url(#SVGID_8_);}
	.st9{fill:url(#SVGID_9_);}
	.st10{fill:url(#SVGID_10_);}
	.st11{fill:url(#SVGID_11_);}
	.st12{fill:url(#SVGID_12_);}
	.st13{fill:url(#SVGID_13_);}
</style>
<linearGradient id="SVGID_1_" gradientUnits="userSpaceOnUse" x1="195.5821" y1="79.0599" x2="195.7133" y2="79.0599">
	<stop  offset="4.259992e-02" style="stop-color:#626262"/>
	<stop  offset="1" style="stop-color:#939393"/>
</linearGradient>
<path class="st0" d="M195.7,79.1C195.7,79.1,195.7,79.1,195.7,79.1C195.6,79.2,195.6,79.2,195.7,79.1
	C195.6,79.2,195.6,79.2,195.7,79.1c-0.1,0-0.1-0.1-0.1-0.1C195.7,79,195.7,79.1,195.7,79.1z"/>
<linearGradient id="SVGID_2_" gradientUnits="userSpaceOnUse" x1="195.7082" y1="79.0972" x2="195.5927" y2="79.1072">
	<stop  offset="0.2478" style="stop-color:#6F6F6F"/>
	<stop  offset="0.2648" style="stop-color:#6E6E6E"/>
	<stop  offset="0.5652" style="stop-color:#656565"/>
	<stop  offset="1" style="stop-color:#626262"/>
</linearGradient>
<path class="st1" d="M195.7,79.1v0.2c0,0,0,0,0,0c0,0,0,0,0,0C195.6,79.2,195.6,79.2,195.7,79.1C195.6,79.2,195.6,79.2,195.7,79.1
	c-0.1,0-0.1-0.1-0.1-0.1C195.7,79,195.7,79.1,195.7,79.1z"/>
<linearGradient id="SVGID_3_" gradientUnits="userSpaceOnUse" x1="195.6071" y1="79.1042" x2="195.7316" y2="79.1042">
	<stop  offset="0.1465" style="stop-color:#565656"/>
	<stop  offset="0.5304" style="stop-color:#5E5E5E"/>
</linearGradient>
<path class="st2" d="M195.7,79.2C195.7,79.2,195.7,79.2,195.7,79.2C195.7,79.2,195.7,79.2,195.7,79.2
	C195.7,79.2,195.7,79.3,195.7,79.2C195.6,79.2,195.6,79.2,195.7,79.2C195.6,79.2,195.6,79.2,195.7,79.2c-0.1-0.1-0.1-0.2-0.1-0.3
	c0.1,0.1,0.1,0.1,0.1,0.1C195.7,79.1,195.7,79.2,195.7,79.2z"/>
<g>
	<linearGradient id="SVGID_4_" gradientUnits="userSpaceOnUse" x1="94.4845" y1="186.9796" x2="95.2223" y2="186.9796">
		<stop  offset="0" style="stop-color:#804C88"/>
		<stop  offset="0.2619" style="stop-color:#6C5F8B"/>
		<stop  offset="0.658" style="stop-color:#51788F"/>
		<stop  offset="0.8911" style="stop-color:#61C1E3"/>
	</linearGradient>
	<path class="st3" d="M94.5,187c0.2,0,0.5,0,0.7,0c-0.1,0-0.2,0-0.2,0C94.8,187,94.6,187,94.5,187z"/>
	<linearGradient id="SVGID_5_" gradientUnits="userSpaceOnUse" x1="99.6429" y1="24.0684" x2="167.8295" y2="24.0684">
		<stop  offset="0.211" style="stop-color:#61BFE1"/>
		<stop  offset="0.9997" style="stop-color:#736C94"/>
	</linearGradient>
	<path class="st4" d="M167.8,27.7c-5,2.9-23.3,3.8-24.6,4.1c-1.7,0.4-34.6,0.3-35.2,0c-0.4-0.3-5.3-3.5-7.4-4.9
		c-0.6-0.4-1-0.6-1-0.6s3.2-0.9,7.9-2.1h0c12.2-3.1,34.6-8.6,38.8-8.1c2.6,0.3,6.3,1.2,10,2.4c0,0,0,0,0,0h0c1.5,1,3,2.1,4.5,3.3
		c1.9,1.5,3.7,3,5.5,4.6C166.9,26.8,167.4,27.3,167.8,27.7z"/>
	<linearGradient id="SVGID_6_" gradientUnits="userSpaceOnUse" x1="-43.4718" y1="79.9297" x2="199.0337" y2="79.9297">
		<stop  offset="0.3795" style="stop-color:#078B7B"/>
		<stop  offset="0.9091" style="stop-color:#4DB0B7"/>
	</linearGradient>
	<path class="st5" d="M3.5,76.1c29-5.7,57.8-12.5,87.1-17.6c29.4-5.1,63.3-11.3,94.1-8c0.5,0,0.9,0.1,1.4,0.2
		c0.7,1.3,1.5,2.6,2.1,3.9c4.9,9.5,8.4,19.8,10.1,30.8c0.3,1.8,0.5,3.6,0.7,5.5c-1.1,1.3-2.3,2.6-3.6,3.8c-4.5-0.2-8.9-0.3-13.4,0
		c-0.5,0-1.1,0.1-1.6,0.1c-4.6-10.8-29.2-7.9-39.9-6.4c-12.9,1.8-25.7,4-38.5,6.2c-1.2,0.2-2.4,0.4-3.6,0.6c0,0,0,0,0,0
		c-6.6,1.2-13.2,2.3-19.8,3.5c-28,4.9-49,9.2-66,11.6c-0.3-1-0.6-2-1-3c-0.5-1.6-0.9-3.2-1.5-4.8c-0.6-1.7-1.2-3.5-1.8-5.2
		C7.3,93.7,6,90.2,4.9,86.6c-0.8-2.6-1.5-5.2-2-7.8"/>
	<linearGradient id="SVGID_7_" gradientUnits="userSpaceOnUse" x1="21.836" y1="21.92" x2="160.8651" y2="21.92">
		<stop  offset="0" style="stop-color:#F1E931"/>
		<stop  offset="0.1119" style="stop-color:#ECE735"/>
		<stop  offset="0.2515" style="stop-color:#DCE242"/>
		<stop  offset="0.4059" style="stop-color:#C3D957"/>
		<stop  offset="0.571" style="stop-color:#9FCD74"/>
		<stop  offset="0.7427" style="stop-color:#72BD99"/>
		<stop  offset="0.8663" style="stop-color:#4DB0B7"/>
	</linearGradient>
	<path class="st6" d="M160.9,21.8c-16.5-3.9-34.6-1.1-51.6,2.9h0c-2.9,0.7-5.8,1.4-8.7,2.2c-3.5,0.9-6.9,1.8-10.3,2.7
		c-11.3,3-22.6,6.4-33.9,9.4c-6.9,1.8-14.9,4.5-22.1,3.6c-4.2-0.5-9.3-1.5-12.4-3.7C32.8,25,47.4,14.1,64.2,7.7
		C75.3,3.4,87.4,1,100,1c20.9,0,40.3,6.5,56.4,17.5c0,0,0,0,0,0h0C157.9,19.6,159.4,20.7,160.9,21.8z"/>
	<path class="st7" d="M179.1,160.8c-3.2,4.3-6.8,8.3-10.7,11.9l0,0c-3.9,3.7-8,7-12.5,10c-9.1,6.2-19.3,11-30.3,13.9h0
		c-1.3,0.3-2.5,0.7-3.8,0.9c-7,1.6-14.4,2.4-21.9,2.4c-10,0-19.6-1.5-28.7-4.2h0c0,0,0,0,0,0c0,0,0,0,0,0c-1.9-0.6-3.8-1.2-5.7-1.9
		c-7.4-2.7-14.4-6.3-20.8-10.6h0c-2.5-1.7-4.9-3.4-7.2-5.3c0.4,0.1,0.9,0.3,1.4,0.4c16.7,4.2,35.1,1.3,52.4-2.9h0
		c6.6-1.6,13-3.4,19.1-5.1c11.4-3.1,22.7-6.6,34.1-9.7c6.9-1.9,15-4.6,22.2-3.7c1.7,0.2,3.6,0.5,5.4,0.9
		C174.8,158.5,177.3,159.5,179.1,160.8z"/>
	<linearGradient id="SVGID_8_" gradientUnits="userSpaceOnUse" x1="1.6303" y1="93.3258" x2="203.1091" y2="91.8866">
		<stop  offset="0" style="stop-color:#61BFE1"/>
		<stop  offset="9.313880e-02" style="stop-color:#63B4D7"/>
		<stop  offset="0.2566" style="stop-color:#6A97BC"/>
		<stop  offset="0.4519" style="stop-color:#736C94"/>
	</linearGradient>
	<path class="st8" d="M101.2,94.8c-0.9,0.3-1.8,0.6-2.7,0.9c0,0,0,0,0,0c-0.2,0.1-0.3,0.1-0.5,0.2c-16.6,5.2-33.3,10-50.3,13.6
		c-11.5,2.4-23.6,4.9-35.2,1.8c-4.1-1.1-8.3-3.1-11.9-5.8c-0.1-1.6-0.1-3.2-0.1-4.9c0-7.4,0.8-14.7,2.4-21.7
		c0.2-0.9,0.4-1.8,0.6-2.7c1.2-0.4,2.4-0.7,3.7-1C24.5,71.3,43.5,76,60,81.3C73.7,85.7,87.4,90.6,101.2,94.8z"/>
	<linearGradient id="SVGID_9_" gradientUnits="userSpaceOnUse" x1="192.519" y1="93.7404" x2="72.9933" y2="104.1477">
		<stop  offset="0" style="stop-color:#804C88"/>
		<stop  offset="0.2619" style="stop-color:#6C5F8B"/>
		<stop  offset="0.658" style="stop-color:#51788F"/>
		<stop  offset="0.8911" style="stop-color:#61C1E3"/>
	</linearGradient>
	<path class="st9" d="M199,90.8c0.3,3.2,0.5,6.4,0.5,9.7c0,4.1-0.2,8.1-0.7,12c-2.4,0.5-5,0.4-7.6,0.2c-30.4-2-60-8.9-89.2-17.7
		c-0.3-0.1-0.6-0.2-0.9-0.3c0.8-0.3,1.6-0.5,2.3-0.8c20.2-6.9,40.4-15.5,61.9-17.3c9.4-0.8,19.9-0.4,28.2,4.7c1.3,0.8,3.3,2.3,4.7,4
		C198.6,87.2,198.9,89,199,90.8z"/>
	<linearGradient id="SVGID_10_" gradientUnits="userSpaceOnUse" x1="12.192" y1="145.2444" x2="196.4545" y2="145.2444">
		<stop  offset="0" style="stop-color:#F1E931"/>
		<stop  offset="0.1373" style="stop-color:#EDE834"/>
		<stop  offset="0.2777" style="stop-color:#E1E33E"/>
		<stop  offset="0.4194" style="stop-color:#CCDC4F"/>
		<stop  offset="0.5622" style="stop-color:#AFD267"/>
		<stop  offset="0.7058" style="stop-color:#8AC585"/>
		<stop  offset="0.8481" style="stop-color:#5EB6A9"/>
		<stop  offset="0.8963" style="stop-color:#4DB0B7"/>
	</linearGradient>
	<path class="st10" d="M196.5,125c-3.3,13.2-9.3,25.3-17.3,35.8c-3.2,4.3-6.8,8.3-10.7,11.9c1.4-2.3,2.7-4.6,3.5-6.6
		c0.8-1.9,1.2-3.9,1-5.9c-0.1-0.8-0.4-1.6-0.7-2.2c-4.2-9.4-20.9-6.7-28.3-5.2c-15,3-29.8,6.7-44.7,10.3
		c-29.7,7.2-48.5,13.1-63.2,13.6c-9.6-8.1-17.7-18.1-23.7-29.3c6.1-0.8,13.4-2.3,22.2-4.5c24.6-6.2,48.7-14.1,73.3-20
		c22.9-5.5,49.6-12.3,73.2-7.1C187.3,117.2,192.6,120.5,196.5,125z"/>
	<linearGradient id="SVGID_11_" gradientUnits="userSpaceOnUse" x1="65.5821" y1="188.7671" x2="155.9723" y2="188.7671">
		<stop  offset="0.2004" style="stop-color:#F1E931"/>
		<stop  offset="0.9285" style="stop-color:#4DB0B7"/>
	</linearGradient>
	<path class="st11" d="M156,182.8c-9.1,6.2-19.3,11-30.3,13.9h0c-1.3,0.3-2.5,0.7-3.8,0.9l-50.6-1.8h0c0,0,0,0,0,0c0,0,0,0,0,0
		c-1.9-0.6-3.8-1.2-5.7-1.9c8.8-0.8,19.4-2.4,31.3-5.1c3.3-0.7,6.8-1.6,10.3-2.5C133.8,179.3,149,178,156,182.8z"/>
	<linearGradient id="SVGID_12_" gradientUnits="userSpaceOnUse" x1="44.7596" y1="191.2868" x2="125.7005" y2="191.2868">
		<stop  offset="0" style="stop-color:#804C88"/>
		<stop  offset="0.2619" style="stop-color:#6C5F8B"/>
		<stop  offset="0.658" style="stop-color:#51788F"/>
		<stop  offset="0.8911" style="stop-color:#61C1E3"/>
	</linearGradient>
	<path class="st12" d="M125.7,196.6c-1.3,0.3-2.5,0.7-3.8,0.9c-7,1.6-14.4,2.4-21.9,2.4c-10,0-19.6-1.5-28.7-4.2h0c0,0,0,0,0,0
		c0,0,0,0,0,0c-1.9-0.6-3.8-1.2-5.7-1.9c-7.4-2.7-14.4-6.3-20.8-10.6c8.7-1.4,24.3-1.1,52.2,5.6
		C105.3,190.8,114.9,193.4,125.7,196.6z"/>
	<linearGradient id="SVGID_13_" gradientUnits="userSpaceOnUse" x1="98.5481" y1="5.1708" x2="98.5481" y2="74.5657">
		<stop  offset="0.1684" style="stop-color:#44518C"/>
		<stop  offset="0.9831" style="stop-color:#008181"/>
	</linearGradient>
	<path class="st13" d="M186.1,50.6c0.7,1.3,1.5,2.6,2.1,3.9c-1.1-1.4-2.3-2.8-3.6-4.1c-29.7-30.4-87.9-9.8-98-7.3
		c-11.1,2.7-53,15.7-77.9,17.4c3.4-7.8,7.8-15.1,13-21.7C32.8,25,47.4,14.1,64.2,7.7c11.3,3.6,22.4,8.2,32.7,12.5
		c3.6,1.5,7.2,2.8,10.8,4h0c0.6,0.2,1.1,0.4,1.7,0.5h0c10.5,3.3,21.2,5.1,32.6,5.2c7.1,0.1,17.6,0.3,24.5-3.6c0.5,0.4,1,0.9,1.4,1.3
		C175,34.4,181.2,42.1,186.1,50.6z"/>
</g>
</svg>
